<?xml version="1.0" encoding="UTF-8" ?>
<!DOCTYPE svg PUBLIC "-//W3C//DTD SVG 1.1//EN" "http://www.w3.org/Graphics/SVG/1.1/DTD/svg11.dtd">
<svg width="859pt" height="1113pt" viewBox="0 0 859 1113" version="1.1" xmlns="http://www.w3.org/2000/svg">
<g id="#1f1d5aff">
<path fill="#1f1d5a" opacity="1.00" d=" M 184.66 29.41 C 185.31 32.19 185.93 34.98 186.57 37.76 C 191.96 59.51 199.67 81.96 215.92 98.09 C 223.53 105.80 233.69 110.13 241.88 117.11 C 256.18 128.61 268.33 144.46 271.05 163.03 C 271.17 163.93 271.39 165.72 271.50 166.62 L 270.77 165.37 C 259.77 145.49 240.96 131.35 221.40 120.56 C 210.44 114.69 201.25 105.72 194.91 95.05 C 184.75 77.94 181.34 57.42 183.26 37.77 C 183.51 34.95 184.10 32.18 184.66 29.41 Z" />
<path fill="#1f1d5a" opacity="1.00" d=" M 367.09 37.88 C 367.33 35.03 367.91 32.22 368.46 29.42 C 369.09 32.06 369.68 34.72 370.29 37.37 C 375.80 59.72 383.74 82.92 400.86 99.15 C 408.15 106.14 417.57 110.26 425.25 116.75 C 440.16 128.67 452.95 145.29 455.07 164.78 L 455.53 168.12 L 454.43 165.25 C 446.33 150.13 433.10 138.39 419.04 128.91 C 409.36 122.22 398.09 117.78 389.78 109.23 C 371.30 90.83 364.49 63.30 367.09 37.88 Z" />
<path fill="#1f1d5a" opacity="1.00" d=" M 550.79 38.67 C 551.06 35.58 551.64 32.52 552.25 29.47 C 552.87 32.00 553.46 34.54 554.04 37.09 C 557.39 51.29 561.97 65.32 568.87 78.23 C 574.72 89.14 582.82 99.04 593.23 105.87 C 599.67 109.97 606.17 114.04 611.92 119.10 C 625.51 130.70 636.67 146.43 638.99 164.53 L 639.34 166.66 C 638.64 166.50 637.99 166.19 637.44 165.75 L 638.93 166.19 C 627.80 145.82 608.65 131.28 588.64 120.33 C 575.25 113.15 564.73 101.21 558.55 87.41 C 551.61 72.25 549.34 55.21 550.79 38.67 Z" />
<path fill="#1f1d5a" opacity="1.00" d=" M 54.46 203.68 C 57.24 202.98 60.12 202.71 62.98 202.69 C 296.35 202.71 529.71 202.70 763.08 202.70 C 770.07 202.67 777.04 205.02 782.60 209.27 C 790.55 215.23 795.38 225.06 795.34 235.00 C 795.31 328.67 795.41 422.34 795.29 516.01 C 792.25 582.23 767.45 647.68 724.31 698.21 C 704.37 721.54 680.56 741.48 654.42 757.52 C 599.52 791.26 535.70 807.73 472.03 814.00 C 424.10 818.52 375.65 818.49 327.84 812.61 C 289.87 807.84 252.25 798.98 216.84 784.33 C 185.54 771.42 156.04 753.87 130.53 731.54 C 107.37 711.37 87.66 687.29 72.25 660.74 C 50.04 622.52 36.42 579.47 31.61 535.57 C 30.48 525.44 30.04 515.25 30.22 505.06 C 30.24 414.70 30.19 324.33 30.24 233.97 C 30.35 219.94 40.87 206.96 54.46 203.68 M 59.42 214.56 C 51.28 215.72 44.21 222.23 42.39 230.25 C 41.47 234.45 41.84 238.77 41.79 243.03 C 41.80 325.68 41.80 408.32 41.80 490.97 C 41.88 503.96 41.39 516.98 42.72 529.93 C 48.53 590.23 71.54 649.51 111.33 695.57 C 132.11 719.82 157.30 740.17 185.05 755.92 C 216.24 773.67 250.42 785.75 285.40 793.47 C 330.83 803.45 377.58 806.48 424.00 805.28 C 466.08 804.07 508.22 799.34 549.03 788.79 C 579.68 780.84 609.59 769.60 637.24 754.09 C 665.71 738.19 691.69 717.69 713.18 693.12 C 733.75 669.75 750.18 642.80 761.89 613.96 C 774.68 582.22 782.56 548.31 783.68 514.06 C 783.70 421.05 783.73 328.03 783.66 235.01 C 783.94 224.03 774.08 214.08 763.07 214.36 C 553.40 214.36 343.73 214.36 134.06 214.36 C 109.18 214.50 84.28 214.07 59.42 214.56 Z" />
<path fill="#1f1d5a" opacity="1.00" d=" M 94.19 233.36 C 98.39 232.59 102.68 232.78 106.94 232.77 C 312.96 232.77 518.99 232.77 725.01 232.77 C 734.92 232.66 744.72 237.35 750.78 245.19 C 755.69 251.30 757.91 259.21 757.70 266.98 C 757.64 349.21 757.78 431.45 757.63 513.68 C 755.10 582.19 726.31 650.02 676.71 697.69 C 653.73 719.79 626.72 737.53 597.73 750.73 C 563.32 766.45 526.35 776.09 488.96 781.43 C 442.43 787.88 395.14 788.82 348.39 784.31 C 309.42 780.37 270.67 771.94 234.48 756.72 C 203.37 743.68 174.27 725.47 149.90 702.07 C 124.71 678.11 104.85 648.74 91.13 616.85 C 75.41 580.07 66.91 540.01 67.81 499.96 C 67.83 421.63 67.77 343.30 67.84 264.97 C 67.66 249.92 79.35 235.88 94.19 233.36 M 97.47 244.65 C 87.15 245.80 78.98 255.62 79.45 265.96 C 79.46 348.64 79.41 431.33 79.48 514.02 C 80.49 543.69 86.84 573.10 97.24 600.88 C 108.75 631.39 125.94 659.85 148.24 683.70 C 169.97 707.15 196.46 726.02 225.26 739.80 C 261.20 757.11 300.41 766.81 339.90 771.60 C 382.55 776.65 425.75 776.55 468.45 772.21 C 506.49 768.18 544.31 760.12 579.84 745.75 C 609.63 733.75 637.72 717.15 661.67 695.66 C 684.69 675.12 703.76 650.18 717.65 622.64 C 734.84 588.36 744.93 550.35 746.09 511.98 C 746.14 430.33 746.10 348.69 746.10 267.04 C 746.55 258.70 742.04 250.24 734.41 246.60 C 729.35 243.85 723.46 244.49 717.94 244.45 C 514.62 244.46 311.31 244.45 108.00 244.45 C 104.49 244.48 100.96 244.29 97.47 244.65 Z" />
<path fill="#1f1d5a" opacity="1.00" d=" M 536.41 354.36 C 539.57 352.44 544.21 354.38 544.90 358.06 C 545.64 360.80 543.72 363.12 542.23 365.18 C 493.81 430.13 445.38 495.07 396.92 559.99 C 392.04 567.11 385.56 573.38 382.73 581.71 C 381.98 584.51 381.39 588.12 383.73 590.35 C 387.66 594.36 393.63 595.21 398.99 595.46 C 430.02 595.53 461.05 595.35 492.07 595.49 C 496.41 595.06 499.53 600.39 497.25 604.04 C 495.98 606.87 492.68 607.07 490.01 607.07 C 462.02 607.15 434.03 607.07 406.05 607.11 C 397.56 607.32 388.59 607.08 380.97 602.89 C 374.80 599.64 370.06 593.13 370.31 585.98 C 370.35 575.58 376.81 566.77 382.97 558.96 C 431.32 494.04 479.90 429.29 528.29 364.40 C 531.01 361.07 533.10 357.15 536.41 354.36 Z" />
<path fill="#1f1d5a" opacity="1.00" d=" M 541.38 399.54 C 546.51 396.71 552.25 403.74 548.51 408.20 C 513.75 455.16 478.66 501.87 443.78 548.74 C 440.56 553.21 436.44 557.46 435.47 563.10 C 435.29 565.18 437.34 566.37 439.02 567.02 C 443.49 568.72 448.36 568.20 453.04 568.22 C 471.71 568.22 490.38 568.22 509.05 568.22 C 511.63 568.11 514.68 568.66 515.96 571.21 C 518.11 574.75 515.33 580.01 511.07 579.74 C 491.04 579.92 471.00 579.68 450.98 579.87 C 444.40 580.20 437.38 579.88 431.59 576.40 C 426.92 573.70 423.59 568.53 423.87 563.04 C 424.09 555.76 428.35 549.49 432.70 543.98 C 467.96 496.79 503.13 449.55 538.39 402.37 C 539.26 401.32 540.12 400.16 541.38 399.54 Z" />
<path fill="#1f1d5a" opacity="1.00" d=" M 328.17 417.31 C 330.75 416.81 333.40 417.03 336.02 416.99 C 364.66 416.94 393.31 416.97 421.95 416.96 C 429.65 416.95 437.76 418.37 444.07 423.06 C 448.45 426.32 451.63 431.44 451.75 436.99 C 452.15 444.53 448.66 451.58 444.59 457.69 C 392.49 527.52 340.37 597.35 288.20 667.13 C 286.31 670.56 281.20 671.66 278.51 668.53 C 276.11 666.07 276.94 662.29 279.07 659.97 C 329.25 592.56 379.52 525.21 429.82 457.88 C 434.13 452.17 439.05 446.32 440.07 438.98 C 440.64 435.74 438.30 432.88 435.59 431.46 C 429.93 428.33 423.24 428.49 416.96 428.54 C 388.28 428.56 359.59 428.61 330.91 428.53 C 328.39 428.72 325.63 427.71 324.63 425.21 C 323.11 422.22 324.94 418.17 328.17 417.31 Z" />
<path fill="#1f1d5a" opacity="1.00" d=" M 310.20 443.13 C 311.75 442.64 313.40 442.65 315.02 442.60 C 335.66 442.52 356.30 442.52 376.94 442.51 C 383.88 442.53 391.55 444.25 396.18 449.83 C 399.29 453.39 400.12 458.47 399.10 463.00 C 397.82 469.15 393.99 474.31 390.20 479.16 C 355.24 525.94 320.38 572.79 285.40 619.56 C 284.01 621.26 282.49 623.43 280.05 623.46 C 276.13 624.05 272.68 619.83 273.97 616.09 C 275.13 613.41 277.14 611.24 278.83 608.90 C 313.84 561.90 348.95 514.98 383.93 467.96 C 385.91 464.90 388.46 461.37 387.47 457.53 C 385.03 455.05 381.37 454.39 378.03 454.30 C 356.01 454.09 333.98 454.47 311.97 454.05 C 306.10 454.22 304.78 444.95 310.20 443.13 Z" />
<path fill="#1f1d5a" opacity="1.00" d=" M 605.54 903.70 C 615.32 902.58 625.61 903.42 634.74 907.24 C 638.97 909.07 636.80 916.73 632.17 915.68 C 622.59 912.86 612.00 910.79 602.33 914.40 C 597.91 915.96 593.87 920.01 594.32 925.02 C 594.14 929.19 597.58 932.31 601.11 933.88 C 611.45 938.36 623.61 938.31 633.03 944.94 C 641.81 950.99 642.55 964.88 635.46 972.51 C 629.86 978.77 621.15 981.13 613.00 981.21 C 603.84 981.23 594.53 979.65 586.20 975.74 C 582.33 974.20 582.73 967.63 586.96 966.97 C 590.83 966.90 594.24 969.27 597.99 970.03 C 606.10 971.91 614.92 972.67 622.91 969.87 C 627.75 968.24 630.99 963.04 630.06 957.97 C 629.31 954.19 625.60 952.11 622.32 950.81 C 613.52 947.62 604.11 946.30 595.57 942.38 C 590.89 940.07 586.42 936.36 584.93 931.17 C 583.27 925.03 584.36 918.10 588.29 913.04 C 592.40 907.67 598.98 904.70 605.54 903.70 Z" />
<path fill="#1f1d5a" opacity="1.00" d=" M 652.97 916.95 C 656.44 909.04 664.94 904.65 673.18 903.61 C 683.45 902.46 694.06 903.82 703.58 907.92 C 703.72 908.43 703.99 909.46 704.13 909.98 C 704.14 912.64 702.62 916.40 699.32 915.64 C 693.59 914.35 687.93 912.44 681.98 912.52 C 675.88 912.40 669.16 913.20 664.42 917.41 C 660.17 921.08 660.16 928.75 664.96 931.97 C 670.60 936.00 677.75 936.69 684.25 938.58 C 691.03 940.40 698.43 942.29 703.19 947.86 C 709.02 954.74 708.50 965.96 702.43 972.54 C 696.82 978.78 688.12 981.13 679.98 981.21 C 670.81 981.20 661.42 979.69 653.12 975.67 C 649.90 974.32 649.54 969.37 652.46 967.53 C 654.43 966.17 656.83 967.36 658.86 967.97 C 668.45 971.69 679.36 973.07 689.33 970.10 C 695.15 968.49 699.15 961.41 696.24 955.82 C 692.74 950.80 686.16 949.86 680.71 948.18 C 672.22 945.66 662.71 944.24 656.07 937.87 C 650.41 932.63 650.02 923.68 652.97 916.95 Z" />
<path fill="#1f1d5a" opacity="1.00" d=" M 39.86 911.50 C 39.54 908.71 40.39 905.11 43.52 904.39 C 50.36 904.27 57.21 904.41 64.05 904.33 C 69.12 904.26 74.25 904.48 79.14 905.94 C 89.71 908.97 98.50 917.30 102.31 927.59 C 107.80 941.49 104.90 958.61 94.32 969.35 C 87.98 975.87 79.08 979.66 70.02 979.96 C 62.35 980.21 54.67 980.04 47.01 980.07 C 44.55 980.19 42.18 979.44 40.15 978.08 L 40.11 977.55 C 39.73 955.54 40.23 933.51 39.86 911.50 M 50.05 913.68 C 50.07 932.67 49.61 951.66 50.11 970.66 C 55.74 970.57 61.37 970.78 67.00 970.64 C 73.99 970.48 81.07 968.12 86.27 963.35 C 99.29 951.70 97.81 927.56 82.67 918.33 C 73.00 911.95 60.97 914.04 50.05 913.68 Z" />
<path fill="#1f1d5a" opacity="1.00" d=" M 122.99 905.01 C 124.86 903.10 127.74 903.57 129.90 904.68 C 131.15 906.92 131.51 909.47 131.44 912.02 C 131.36 933.93 131.58 955.84 131.31 977.74 C 129.19 982.46 120.93 981.14 121.44 975.65 C 121.46 953.95 121.53 932.26 121.43 910.57 C 121.44 908.63 121.29 906.34 122.99 905.01 Z" />
<path fill="#1f1d5a" opacity="1.00" d=" M 145.04 904.74 C 145.83 904.52 146.63 904.39 147.45 904.36 C 166.33 904.45 185.22 904.13 204.10 904.51 C 207.48 906.33 207.67 911.91 203.96 913.45 C 196.04 913.90 188.09 913.60 180.16 913.69 C 180.10 933.14 180.03 952.59 180.08 972.04 C 180.11 974.60 179.79 977.18 178.79 979.57 C 175.39 982.04 169.57 980.21 169.91 975.53 C 170.10 954.92 169.93 934.31 169.86 913.70 C 162.88 913.62 155.90 913.74 148.91 913.64 C 146.97 913.65 144.65 913.23 143.81 911.22 C 142.60 909.02 144.01 906.67 145.04 904.74 Z" />
<path fill="#1f1d5a" opacity="1.00" d=" M 237.16 904.89 C 239.37 903.59 242.00 903.50 244.49 903.60 C 247.08 905.41 248.99 908.00 250.06 910.97 C 258.78 931.88 267.88 952.64 276.45 973.61 C 279.09 978.33 272.36 983.04 268.69 979.35 C 264.61 973.86 263.59 966.72 259.97 960.95 C 247.91 960.30 235.80 960.91 223.72 960.70 C 221.17 966.22 219.14 971.98 216.48 977.47 C 215.65 979.49 213.51 980.27 211.65 981.06 C 209.47 980.52 207.91 978.88 206.36 977.40 C 208.01 971.09 210.94 965.24 213.39 959.23 C 219.99 943.57 226.69 927.95 233.25 912.27 C 234.33 909.69 235.56 907.18 237.16 904.89 M 227.56 951.51 C 237.17 951.40 246.80 951.27 256.42 951.60 C 251.41 940.12 246.79 928.48 241.86 916.97 C 237.16 928.51 232.26 939.97 227.56 951.51 Z" />
<path fill="#1f1d5a" opacity="1.00" d=" M 291.08 911.28 C 289.06 908.31 291.27 903.63 294.97 903.68 C 298.03 903.43 299.87 906.23 301.52 908.34 C 308.19 917.18 315.24 925.74 322.09 934.46 C 327.68 927.38 333.41 920.40 338.82 913.18 C 341.06 910.32 343.14 907.30 345.67 904.69 C 348.06 902.52 351.75 904.02 353.31 906.47 C 353.42 908.64 353.03 910.86 351.52 912.53 C 343.62 922.38 335.59 932.13 327.81 942.07 C 335.47 951.80 343.28 961.41 351.13 970.98 C 352.74 972.87 354.39 975.48 353.00 977.98 C 351.51 981.28 346.55 981.46 344.59 978.50 C 336.83 968.99 329.26 959.30 321.47 949.81 C 314.20 958.81 307.10 967.93 299.99 977.05 C 298.63 978.55 297.24 980.55 295.01 980.63 C 291.87 980.84 289.23 977.34 290.49 974.42 C 291.58 972.00 293.46 970.05 295.11 968.00 C 302.15 959.46 309.10 950.83 315.98 942.16 C 307.70 931.85 299.37 921.58 291.08 911.28 Z" />
<path fill="#1f1d5a" opacity="1.00" d=" M 368.50 910.00 C 368.21 907.35 370.04 904.37 372.92 904.45 C 381.28 904.20 389.65 904.43 398.01 904.34 C 405.30 904.22 412.97 905.63 418.83 910.25 C 430.66 919.28 429.85 940.35 416.89 948.02 C 409.86 952.62 401.15 952.74 393.05 952.56 C 388.07 952.34 382.97 953.23 378.09 951.92 C 378.95 958.57 378.23 965.29 378.45 971.97 C 378.29 974.52 378.98 977.84 376.55 979.59 C 373.70 982.00 368.42 980.01 368.56 976.09 C 368.37 954.07 368.51 932.03 368.50 910.00 M 378.45 942.86 C 387.67 942.46 397.03 944.13 406.13 942.09 C 410.93 941.06 415.11 937.41 416.44 932.64 C 417.56 928.11 416.98 922.89 413.76 919.33 C 410.20 914.97 404.21 914.06 398.93 913.84 C 392.11 913.68 385.29 913.87 378.48 913.78 C 378.43 923.47 378.50 933.17 378.45 942.86 Z" />
<path fill="#1f1d5a" opacity="1.00" d=" M 442.02 909.88 C 441.71 906.99 443.95 904.17 446.97 904.42 C 456.26 904.24 465.57 904.36 474.87 904.38 C 483.54 904.58 493.20 907.11 498.32 914.71 C 505.74 925.30 500.62 942.35 487.83 945.95 C 491.63 947.08 495.21 949.36 497.00 953.02 C 500.70 960.33 501.64 968.86 500.79 976.94 C 500.10 981.76 491.89 981.84 491.26 976.97 C 490.51 970.32 491.60 963.01 487.70 957.13 C 485.30 953.05 480.65 950.84 476.01 950.77 C 468.07 950.49 460.12 950.83 452.18 950.70 C 452.15 959.16 452.00 967.62 451.79 976.07 C 451.92 979.30 448.52 980.79 445.75 980.60 C 445.29 980.63 444.37 980.68 443.91 980.71 C 442.95 978.59 441.88 976.42 441.99 974.04 C 441.96 952.65 441.76 931.26 442.02 909.88 M 452.11 913.80 C 452.13 922.83 452.14 931.86 452.13 940.89 C 459.43 940.63 466.73 941.42 474.04 941.01 C 478.79 940.72 483.72 939.54 487.46 936.44 C 493.22 931.72 493.01 921.42 486.79 917.20 C 482.74 914.47 477.67 914.07 472.94 913.83 C 466.00 913.70 459.05 913.85 452.11 913.80 Z" />
<path fill="#1f1d5a" opacity="1.00" d=" M 518.93 907.62 C 519.78 906.27 520.83 904.72 522.50 904.39 C 538.12 904.37 553.75 904.22 569.37 904.48 C 570.42 905.21 571.28 906.18 572.00 907.25 C 572.38 910.00 571.20 913.57 567.88 913.52 C 554.92 913.87 541.94 913.58 528.97 913.69 C 529.25 921.60 529.10 929.52 529.15 937.44 C 539.78 937.40 550.42 937.53 561.06 937.47 C 563.25 937.54 566.07 937.35 567.39 939.54 C 569.30 942.22 567.48 946.74 563.97 946.65 C 552.36 947.12 540.72 946.36 529.11 947.15 C 529.18 954.98 529.15 962.81 529.07 970.64 C 542.08 970.79 555.10 970.49 568.10 970.92 C 573.24 971.06 573.30 979.83 568.08 979.87 C 553.73 980.22 539.34 980.04 524.98 980.03 C 521.96 980.43 518.69 978.45 519.04 975.10 C 518.75 952.61 519.06 930.11 518.93 907.62 Z" />
<path fill="#1f1d5a" opacity="1.00" d=" M 746.22 904.24 C 757.72 901.81 770.64 903.46 780.01 910.97 C 798.32 925.58 798.79 956.84 781.36 972.33 C 765.70 985.86 738.40 984.05 725.76 967.21 C 716.49 954.74 715.54 937.10 722.12 923.21 C 726.64 913.59 735.84 906.43 746.22 904.24 M 748.36 913.49 C 738.86 915.58 731.36 923.62 729.09 932.95 C 726.81 942.68 727.86 953.79 734.18 961.86 C 744.94 975.87 769.68 975.03 779.14 959.98 C 786.50 948.19 785.83 931.18 776.26 920.79 C 769.31 913.24 758.06 911.20 748.36 913.49 Z" />
</g>
<g id="#00000031">
<path fill="#000000" opacity="0.19" d=" M 186.57 37.76 C 190.88 36.76 195.22 38.60 197.94 41.99 C 203.33 48.78 206.78 56.85 210.18 64.77 C 215.34 74.82 220.62 85.23 229.46 92.62 C 238.91 101.25 250.23 107.62 259.17 116.85 C 266.26 123.73 271.85 132.10 275.88 141.10 C 278.10 145.75 277.46 151.04 277.45 156.02 C 277.69 159.32 274.83 161.46 272.90 163.71 C 272.44 163.54 271.52 163.20 271.05 163.03 C 268.33 144.46 256.18 128.61 241.88 117.11 C 233.69 110.13 223.53 105.80 215.92 98.09 C 199.67 81.96 191.96 59.51 186.57 37.76 Z" />
<path fill="#000000" opacity="0.19" d=" M 370.29 37.37 C 373.12 37.59 376.43 37.13 378.63 39.37 C 385.45 45.14 388.65 53.80 392.27 61.70 C 397.42 72.88 403.54 83.95 412.74 92.32 C 422.99 101.12 434.73 108.14 444.19 117.86 C 450.76 124.91 456.57 132.86 460.05 141.91 C 461.95 146.54 461.63 151.69 461.34 156.58 C 461.05 160.33 457.68 162.57 455.07 164.78 C 452.95 145.29 440.16 128.67 425.25 116.75 C 417.57 110.26 408.15 106.14 400.86 99.15 C 383.74 82.92 375.80 59.72 370.29 37.37 Z" />
<path fill="#000000" opacity="0.19" d=" M 554.04 37.09 C 560.80 37.21 566.34 41.84 569.28 47.67 C 573.71 55.17 576.44 63.52 580.70 71.12 C 585.57 79.89 591.41 88.36 599.35 94.63 C 606.62 100.76 614.60 105.97 621.84 112.14 C 627.48 116.48 631.79 122.22 636.07 127.83 C 641.77 135.64 646.64 145.01 645.46 154.98 C 645.56 159.22 642.31 162.41 638.99 164.53 C 636.67 146.43 625.51 130.70 611.92 119.10 C 606.17 114.04 599.67 109.97 593.23 105.87 C 582.82 99.04 574.72 89.14 568.87 78.23 C 561.97 65.32 557.39 51.29 554.04 37.09 Z" />
<path fill="#000000" opacity="0.19" d=" M 174.64 55.20 C 175.06 48.54 177.68 41.76 183.26 37.77 C 181.34 57.42 184.75 77.94 194.91 95.05 C 201.25 105.72 210.44 114.69 221.40 120.56 C 240.96 131.35 259.77 145.49 270.77 165.37 C 259.52 166.39 251.11 157.43 242.88 151.18 C 232.42 142.63 220.50 136.20 209.53 128.37 C 186.70 111.87 172.75 83.41 174.64 55.20 Z" />
<path fill="#000000" opacity="0.19" d=" M 360.28 46.15 C 361.50 42.66 364.38 40.22 367.09 37.88 C 364.49 63.30 371.30 90.83 389.78 109.23 C 398.09 117.78 409.36 122.22 419.04 128.91 C 433.10 138.39 446.33 150.13 454.43 165.25 C 449.98 164.34 445.07 164.59 441.27 161.71 C 430.31 154.45 420.69 145.30 409.38 138.55 C 400.74 133.01 391.83 127.70 384.32 120.64 C 372.20 108.84 364.44 93.19 360.12 76.98 C 358.96 72.76 358.41 68.38 358.55 63.99 C 358.70 58.03 357.84 51.79 360.28 46.15 Z" />
<path fill="#000000" opacity="0.19" d=" M 543.01 50.98 C 544.07 46.16 546.29 41.19 550.79 38.67 C 549.34 55.21 551.61 72.25 558.55 87.41 C 564.73 101.21 575.25 113.15 588.64 120.33 C 608.65 131.28 627.80 145.82 638.93 166.19 L 637.44 165.75 C 633.37 164.22 628.72 164.36 625.05 161.83 C 616.75 156.66 609.86 149.57 601.65 144.26 C 590.15 136.16 577.34 129.75 567.30 119.72 C 549.75 101.83 539.71 76.05 543.01 50.98 Z" />
<path fill="#000000" opacity="0.19" d=" M 66.62 190.17 C 71.05 189.59 75.53 189.78 79.99 189.79 C 303.64 189.78 527.29 189.80 750.94 189.78 C 760.20 189.39 769.49 190.64 778.45 192.96 C 792.27 196.73 803.78 207.51 808.56 221.00 C 810.75 227.76 812.59 234.81 812.21 241.97 C 811.88 249.00 813.66 255.92 813.21 262.96 C 813.15 338.30 813.21 413.64 813.18 488.98 C 813.13 495.05 813.53 501.14 812.68 507.17 C 811.73 514.07 812.48 521.03 812.17 527.95 C 809.15 564.19 800.69 600.08 786.03 633.40 C 782.20 641.49 778.95 649.86 774.23 657.49 C 748.09 706.55 707.70 747.62 659.76 775.60 C 633.34 791.06 605.09 803.36 575.75 812.12 C 532.69 824.89 487.92 831.57 443.12 833.70 C 439.11 834.26 435.06 834.30 431.02 834.23 C 412.67 834.17 394.31 834.33 375.96 834.14 C 368.68 833.06 361.30 833.45 354.01 832.56 C 307.94 828.59 261.93 819.93 218.81 802.86 C 184.19 789.03 151.39 770.12 123.28 745.52 C 117.17 740.39 111.86 734.40 106.13 728.86 C 92.44 715.73 80.75 700.63 70.23 684.88 C 64.41 675.32 58.22 665.95 53.55 655.76 C 32.66 615.63 20.97 571.00 17.78 525.96 C 17.86 517.30 17.95 508.64 16.83 500.03 C 16.78 419.36 16.85 338.68 16.79 258.00 C 17.26 251.33 18.14 244.68 17.79 237.97 C 18.83 224.91 23.78 211.63 33.72 202.72 C 42.85 194.86 54.78 191.16 66.62 190.17 M 54.46 203.68 C 40.87 206.96 30.35 219.94 30.24 233.97 C 30.19 324.33 30.24 414.70 30.22 505.06 C 30.04 515.25 30.48 525.44 31.61 535.57 C 36.42 579.47 50.04 622.52 72.25 660.74 C 87.66 687.29 107.37 711.37 130.53 731.54 C 156.04 753.87 185.54 771.42 216.84 784.33 C 252.25 798.98 289.87 807.84 327.84 812.61 C 375.65 818.49 424.10 818.52 472.03 814.00 C 535.70 807.73 599.52 791.26 654.42 757.52 C 680.56 741.48 704.37 721.54 724.31 698.21 C 767.45 647.68 792.25 582.23 795.29 516.01 C 795.41 422.34 795.31 328.67 795.34 235.00 C 795.38 225.06 790.55 215.23 782.60 209.27 C 777.04 205.02 770.07 202.67 763.08 202.70 C 529.71 202.70 296.35 202.71 62.98 202.69 C 60.12 202.71 57.24 202.98 54.46 203.68 Z" />
<path fill="#000000" opacity="0.19" d=" M 59.42 214.56 C 84.28 214.07 109.18 214.50 134.06 214.36 C 343.73 214.36 553.40 214.36 763.07 214.36 C 774.08 214.08 783.94 224.03 783.66 235.01 C 783.73 328.03 783.70 421.05 783.68 514.06 C 782.56 548.31 774.68 582.22 761.89 613.96 C 750.18 642.80 733.75 669.75 713.18 693.12 C 691.69 717.69 665.71 738.19 637.24 754.09 C 609.59 769.60 579.68 780.84 549.03 788.79 C 508.22 799.34 466.08 804.07 424.00 805.28 C 377.58 806.48 330.83 803.45 285.40 793.47 C 250.42 785.75 216.24 773.67 185.05 755.92 C 157.30 740.17 132.11 719.82 111.33 695.57 C 71.54 649.51 48.53 590.23 42.72 529.93 C 41.39 516.98 41.88 503.96 41.80 490.97 C 41.80 408.32 41.80 325.68 41.79 243.03 C 41.84 238.77 41.47 234.45 42.39 230.25 C 44.21 222.23 51.28 215.72 59.42 214.56 M 60.75 232.81 C 55.96 236.86 56.20 243.70 56.67 249.39 C 56.87 251.34 57.69 254.73 60.31 253.34 C 64.62 249.23 67.58 243.91 71.35 239.32 C 73.54 236.93 73.58 233.65 73.53 230.60 C 69.25 230.66 64.20 229.56 60.75 232.81 M 756.44 230.60 C 756.59 233.14 756.15 236.01 757.96 238.09 C 761.19 242.20 764.03 246.62 767.34 250.67 C 768.45 252.39 770.54 252.43 772.37 252.72 C 774.11 246.15 774.69 237.81 769.23 232.78 C 765.94 229.22 760.69 230.84 756.44 230.60 M 94.19 233.36 C 79.35 235.88 67.66 249.92 67.84 264.97 C 67.77 343.30 67.83 421.63 67.81 499.96 C 66.91 540.01 75.41 580.07 91.13 616.85 C 104.85 648.74 124.71 678.11 149.90 702.07 C 174.27 725.47 203.37 743.68 234.48 756.72 C 270.67 771.94 309.42 780.37 348.39 784.31 C 395.14 788.82 442.43 787.88 488.96 781.43 C 526.35 776.09 563.32 766.45 597.73 750.73 C 626.72 737.53 653.73 719.79 676.71 697.69 C 726.31 650.02 755.10 582.19 757.63 513.68 C 757.78 431.45 757.64 349.21 757.70 266.98 C 757.91 259.21 755.69 251.30 750.78 245.19 C 744.72 237.35 734.92 232.66 725.01 232.77 C 518.99 232.77 312.96 232.77 106.94 232.77 C 102.68 232.78 98.39 232.59 94.19 233.36 Z" />
<path fill="#000000" opacity="0.19" d=" M 97.47 244.65 C 100.96 244.29 104.49 244.48 108.00 244.45 C 311.31 244.45 514.62 244.46 717.94 244.45 C 723.46 244.49 729.35 243.85 734.41 246.60 C 742.04 250.24 746.55 258.70 746.10 267.04 C 746.10 348.69 746.14 430.33 746.09 511.98 C 744.93 550.35 734.84 588.36 717.65 622.64 C 703.76 650.18 684.69 675.12 661.67 695.66 C 637.72 717.15 609.63 733.75 579.84 745.75 C 544.31 760.12 506.49 768.18 468.45 772.21 C 425.75 776.55 382.55 776.65 339.90 771.60 C 300.41 766.81 261.20 757.11 225.26 739.80 C 196.46 726.02 169.97 707.15 148.24 683.70 C 125.94 659.85 108.75 631.39 97.24 600.88 C 86.84 573.10 80.49 543.69 79.48 514.02 C 79.41 431.33 79.46 348.64 79.45 265.96 C 78.98 255.62 87.15 245.80 97.47 244.65 M 111.64 254.33 C 105.47 254.92 98.76 256.52 94.55 261.40 C 89.42 267.72 89.51 276.27 88.91 283.97 C 88.87 357.98 88.96 432.00 88.87 506.02 C 89.57 530.62 92.87 555.22 99.58 578.93 C 109.71 615.08 127.66 649.18 152.70 677.22 C 163.21 690.06 176.27 700.46 189.32 710.56 C 203.76 721.47 219.84 729.87 236.08 737.71 C 281.78 758.49 332.06 767.13 381.92 769.53 C 395.25 770.72 408.66 769.84 422.03 770.12 C 473.94 768.58 526.28 761.40 575.02 742.76 C 609.51 729.18 642.45 710.09 668.30 683.22 C 684.92 667.19 698.86 648.44 709.70 628.07 C 714.66 619.95 718.11 611.05 721.88 602.35 C 734.25 572.13 740.42 539.54 741.13 506.94 C 741.04 434.62 741.12 362.30 741.11 289.98 C 741.07 281.38 741.40 272.23 737.45 264.34 C 735.43 259.57 730.61 256.92 725.85 255.63 C 716.08 253.20 705.94 254.04 695.98 253.90 C 531.33 253.90 366.68 253.93 202.03 253.90 C 171.90 254.05 141.75 253.55 111.64 254.33 Z" />
<path fill="#000000" opacity="0.19" d=" M 534.36 351.49 C 537.44 350.69 540.79 350.08 543.87 351.25 C 550.19 353.38 554.40 360.21 553.54 366.83 C 553.52 374.58 547.91 380.64 546.43 387.98 C 545.63 393.67 551.70 396.49 554.69 400.39 C 558.30 404.00 557.53 409.41 557.54 414.04 C 557.68 419.75 554.13 424.55 551.19 429.14 C 531.89 456.07 511.39 482.13 491.95 508.96 C 488.98 512.51 486.57 516.46 484.39 520.53 C 478.43 529.47 471.04 537.45 465.73 546.83 C 463.96 549.73 463.10 554.69 467.15 556.02 C 474.90 559.43 483.66 556.66 491.83 557.81 C 498.96 559.10 506.55 557.63 513.28 560.91 C 518.94 562.84 524.15 567.73 524.46 574.00 C 524.74 577.81 524.55 581.93 522.14 585.12 C 519.32 589.93 513.94 592.31 510.65 596.70 C 506.87 601.80 506.67 608.71 502.57 613.61 C 497.76 619.13 490.22 621.53 483.06 621.37 C 478.34 621.28 473.70 622.33 468.98 622.39 C 453.32 622.36 437.66 622.31 422.00 622.41 C 416.64 622.51 411.37 621.11 406.01 621.37 C 395.15 621.90 383.98 619.20 375.11 612.79 C 371.07 609.84 368.15 605.53 363.71 603.12 C 362.30 602.31 360.53 601.99 359.01 602.67 C 354.37 604.51 351.54 608.85 348.68 612.69 C 335.93 629.61 323.33 646.66 310.52 663.54 C 305.52 670.18 299.59 677.09 291.03 678.87 C 285.07 680.75 278.53 678.04 274.89 673.14 C 271.80 669.89 272.59 665.12 272.52 661.04 C 272.06 652.27 280.52 645.76 279.60 636.95 C 278.14 633.26 274.46 631.04 272.22 627.83 C 267.98 622.76 267.66 615.42 269.71 609.36 C 272.06 602.71 276.22 596.91 280.32 591.24 C 300.96 563.88 321.21 536.23 341.87 508.88 C 346.33 502.95 350.82 497.04 355.09 490.97 C 358.41 486.30 362.62 481.83 363.67 476.00 C 364.61 471.69 359.45 469.90 356.09 469.48 C 347.41 469.01 338.66 469.98 330.02 468.53 C 322.10 468.70 313.32 467.52 307.49 461.63 C 303.11 457.36 302.71 450.66 304.16 445.05 C 306.44 438.22 313.63 434.97 316.91 428.80 C 319.51 424.12 321.04 418.76 324.81 414.81 C 327.58 411.67 331.43 409.76 335.40 408.60 C 340.13 407.05 345.19 407.98 350.04 407.16 C 355.66 406.30 361.36 406.68 367.03 406.64 C 380.35 406.62 393.67 406.68 406.99 406.59 C 410.37 406.54 413.72 407.04 417.07 407.42 C 421.74 407.93 426.46 407.24 431.11 407.97 C 437.13 408.90 443.07 410.69 448.40 413.67 C 454.85 417.21 458.81 424.30 465.99 426.67 C 472.42 424.38 476.25 418.26 480.24 413.11 C 485.91 405.82 490.80 397.87 497.58 391.52 C 505.85 381.10 513.31 370.02 521.85 359.80 C 525.30 356.15 529.39 352.75 534.36 351.49 M 536.41 354.36 C 533.10 357.15 531.01 361.07 528.29 364.40 C 479.90 429.29 431.32 494.04 382.97 558.96 C 376.81 566.77 370.35 575.58 370.31 585.98 C 370.06 593.13 374.80 599.64 380.97 602.89 C 388.59 607.08 397.56 607.32 406.05 607.11 C 434.03 607.07 462.02 607.15 490.01 607.07 C 492.68 607.07 495.98 606.87 497.25 604.04 C 499.53 600.39 496.41 595.06 492.07 595.49 C 461.05 595.35 430.02 595.53 398.99 595.46 C 393.63 595.21 387.66 594.36 383.73 590.35 C 381.39 588.12 381.98 584.51 382.73 581.71 C 385.56 573.38 392.04 567.11 396.92 559.99 C 445.38 495.07 493.81 430.13 542.23 365.18 C 543.72 363.12 545.64 360.80 544.90 358.06 C 544.21 354.38 539.57 352.44 536.41 354.36 M 541.38 399.54 C 540.12 400.16 539.26 401.32 538.39 402.37 C 503.13 449.55 467.96 496.79 432.70 543.98 C 428.35 549.49 424.09 555.76 423.87 563.04 C 423.59 568.53 426.92 573.70 431.59 576.40 C 437.38 579.88 444.40 580.20 450.98 579.87 C 471.00 579.68 491.04 579.92 511.07 579.74 C 515.33 580.01 518.11 574.75 515.96 571.21 C 514.68 568.66 511.63 568.11 509.05 568.22 C 490.38 568.22 471.71 568.22 453.04 568.22 C 448.36 568.20 443.49 568.72 439.02 567.02 C 437.34 566.37 435.29 565.18 435.47 563.10 C 436.44 557.46 440.56 553.21 443.78 548.74 C 478.66 501.87 513.75 455.16 548.51 408.20 C 552.25 403.74 546.51 396.71 541.38 399.54 M 328.17 417.31 C 324.94 418.17 323.11 422.22 324.63 425.21 C 325.63 427.71 328.39 428.72 330.91 428.53 C 359.59 428.61 388.28 428.56 416.96 428.54 C 423.24 428.49 429.93 428.33 435.59 431.46 C 438.30 432.88 440.64 435.74 440.07 438.98 C 439.05 446.32 434.13 452.17 429.82 457.88 C 379.52 525.21 329.25 592.56 279.07 659.97 C 276.94 662.29 276.11 666.07 278.51 668.53 C 281.20 671.66 286.31 670.56 288.20 667.13 C 340.37 597.35 392.49 527.52 444.59 457.69 C 448.66 451.58 452.15 444.53 451.75 436.99 C 451.63 431.44 448.45 426.32 444.07 423.06 C 437.76 418.37 429.65 416.95 421.95 416.96 C 393.31 416.97 364.66 416.94 336.02 416.99 C 333.40 417.03 330.75 416.81 328.17 417.31 M 310.20 443.13 C 304.78 444.95 306.10 454.22 311.97 454.05 C 333.98 454.47 356.01 454.09 378.03 454.30 C 381.37 454.39 385.03 455.05 387.47 457.53 C 388.46 461.37 385.91 464.90 383.93 467.96 C 348.95 514.98 313.84 561.90 278.83 608.90 C 277.14 611.24 275.13 613.41 273.97 616.09 C 272.68 619.83 276.13 624.05 280.05 623.46 C 282.49 623.43 284.01 621.26 285.40 619.56 C 320.38 572.79 355.24 525.94 390.20 479.16 C 393.99 474.31 397.82 469.15 399.10 463.00 C 400.12 458.47 399.29 453.39 396.18 449.83 C 391.55 444.25 383.88 442.53 376.94 442.51 C 356.30 442.52 335.66 442.52 315.02 442.60 C 313.40 442.65 311.75 442.64 310.20 443.13 M 404.27 573.06 C 401.98 576.00 402.64 579.86 402.64 583.32 C 404.37 584.44 405.94 586.17 408.12 586.33 C 412.60 586.59 417.53 587.12 421.41 584.36 C 421.95 578.14 419.64 571.95 415.98 567.01 C 411.03 564.67 406.75 569.25 404.27 573.06 Z" />
<path fill="#000000" opacity="0.19" d=" M 162.00 898.62 C 169.22 897.02 176.67 897.18 184.02 897.42 C 189.45 897.81 194.98 898.61 200.01 900.80 C 201.82 901.45 203.06 902.96 204.10 904.51 C 185.22 904.13 166.33 904.45 147.45 904.36 C 151.53 900.86 156.91 899.74 162.00 898.62 Z" />
<path fill="#000000" opacity="0.19" d=" M 43.52 904.39 C 47.84 899.58 54.88 898.73 60.97 898.24 C 71.20 898.39 81.85 899.61 90.89 904.78 C 95.90 907.32 100.10 911.09 104.55 914.47 C 107.18 916.17 110.71 918.56 113.78 916.44 C 116.44 914.63 118.65 912.22 121.43 910.57 C 121.53 932.26 121.46 953.95 121.44 975.65 C 118.13 973.85 115.75 970.78 112.50 968.94 C 109.02 967.97 106.29 971.13 103.77 973.01 C 98.18 978.03 92.19 982.84 85.04 985.45 C 76.18 989.05 66.45 989.17 57.04 988.85 C 51.38 988.64 45.86 986.16 41.74 982.32 C 40.42 981.30 40.44 979.55 40.15 978.08 C 42.18 979.44 44.55 980.19 47.01 980.07 C 54.67 980.04 62.35 980.21 70.02 979.96 C 79.08 979.66 87.98 975.87 94.32 969.35 C 104.90 958.61 107.80 941.49 102.31 927.59 C 98.50 917.30 89.71 908.97 79.14 905.94 C 74.25 904.48 69.12 904.26 64.05 904.33 C 57.21 904.41 50.36 904.27 43.52 904.39 Z" />
<path fill="#000000" opacity="0.19" d=" M 376.27 900.87 C 387.72 896.79 400.29 897.95 411.90 900.68 C 419.58 902.40 425.76 909.11 433.99 908.42 C 438.62 908.21 441.88 904.48 445.81 902.54 C 455.02 897.59 465.82 897.81 475.94 898.70 C 483.82 899.79 491.90 901.64 498.54 906.25 C 502.03 908.36 505.46 911.43 509.76 911.42 C 513.34 910.90 515.91 907.98 518.88 906.19 L 518.93 907.62 C 519.06 930.11 518.75 952.61 519.04 975.10 C 518.69 978.45 521.96 980.43 524.98 980.03 C 539.34 980.04 553.73 980.22 568.08 979.87 C 573.30 979.83 573.24 971.06 568.10 970.92 C 555.10 970.49 542.08 970.79 529.07 970.64 C 529.15 962.81 529.18 954.98 529.11 947.15 C 540.72 946.36 552.36 947.12 563.97 946.65 C 567.48 946.74 569.30 942.22 567.39 939.54 C 566.07 937.35 563.25 937.54 561.06 937.47 C 550.42 937.53 539.78 937.40 529.15 937.44 C 529.10 929.52 529.25 921.60 528.97 913.69 C 541.94 913.58 554.92 913.87 567.88 913.52 C 571.20 913.57 572.38 910.00 572.00 907.25 L 572.03 905.80 C 574.10 907.37 576.07 909.16 578.45 910.30 C 580.70 910.72 582.85 909.45 584.88 908.63 C 593.59 904.43 602.05 898.69 612.04 898.35 C 622.75 897.24 634.66 901.06 640.71 910.42 C 642.24 913.36 646.09 912.67 648.52 911.35 C 652.78 909.01 656.60 905.97 660.89 903.69 C 670.08 898.79 681.06 896.67 691.27 899.27 C 695.99 900.94 701.47 902.91 703.58 907.92 C 694.06 903.82 683.45 902.46 673.18 903.61 C 664.94 904.65 656.44 909.04 652.97 916.95 C 650.02 923.68 650.41 932.63 656.07 937.87 C 662.71 944.24 672.22 945.66 680.71 948.18 C 686.16 949.86 692.74 950.80 696.24 955.82 C 699.15 961.41 695.15 968.49 689.33 970.10 C 679.36 973.07 668.45 971.69 658.86 967.97 C 656.83 967.36 654.43 966.17 652.46 967.53 C 649.54 969.37 649.90 974.32 653.12 975.67 C 661.42 979.69 670.81 981.20 679.98 981.21 C 688.12 981.13 696.82 978.78 702.43 972.54 C 708.50 965.96 709.02 954.74 703.19 947.86 C 698.43 942.29 691.03 940.40 684.25 938.58 C 677.75 936.69 670.60 936.00 664.96 931.97 C 660.16 928.75 660.17 921.08 664.42 917.41 C 669.16 913.20 675.88 912.40 681.98 912.52 C 687.93 912.44 693.59 914.35 699.32 915.64 C 702.62 916.40 704.14 912.64 704.13 909.98 C 706.63 912.35 706.07 916.37 703.99 918.82 C 700.92 922.52 695.94 923.85 692.73 927.37 C 692.31 928.96 692.41 930.97 693.92 931.98 C 697.56 935.02 702.44 937.46 707.28 936.09 C 711.21 934.22 711.93 929.42 713.67 925.87 C 717.16 916.90 725.11 910.84 732.88 905.73 C 744.34 898.46 759.06 895.91 772.00 900.52 C 780.51 903.54 788.89 908.31 794.03 915.96 C 801.33 925.58 804.97 938.07 803.42 950.08 C 802.06 957.51 799.96 965.05 795.35 971.17 C 788.91 980.69 778.71 987.56 767.49 990.05 C 755.65 992.19 742.83 990.32 732.80 983.39 C 728.12 980.47 723.65 976.56 718.04 975.71 C 712.04 976.25 708.01 981.33 703.08 984.20 C 691.29 992.12 675.49 993.43 662.53 987.69 C 657.99 985.74 654.20 981.69 649.01 981.59 C 641.84 980.71 636.28 986.15 629.77 988.04 C 615.99 993.62 599.22 991.92 587.60 982.35 C 585.56 980.89 583.72 978.48 580.98 978.58 C 577.60 978.25 575.29 981.09 572.97 983.06 C 566.92 988.89 558.20 990.99 550.00 990.74 C 542.47 990.53 534.61 991.61 527.45 988.68 C 523.04 987.09 519.30 984.16 515.09 982.18 C 510.59 980.85 505.81 981.84 501.33 982.76 C 499.44 982.81 497.56 982.92 495.68 983.10 C 488.94 980.16 485.43 973.49 480.54 968.46 C 477.45 964.86 472.18 965.11 467.98 966.09 C 461.94 969.42 460.57 977.44 454.51 980.83 C 451.95 982.42 447.40 984.35 445.75 980.60 C 448.52 980.79 451.92 979.30 451.79 976.07 C 452.00 967.62 452.15 959.16 452.18 950.70 C 460.12 950.83 468.07 950.49 476.01 950.77 C 480.65 950.84 485.30 953.05 487.70 957.13 C 491.60 963.01 490.51 970.32 491.26 976.97 C 491.89 981.84 500.10 981.76 500.79 976.94 C 501.64 968.86 500.70 960.33 497.00 953.02 C 495.21 949.36 491.63 947.08 487.83 945.95 C 500.62 942.35 505.74 925.30 498.32 914.71 C 493.20 907.11 483.54 904.58 474.87 904.38 C 465.57 904.36 456.26 904.24 446.97 904.42 C 443.95 904.17 441.71 906.99 442.02 909.88 C 441.76 931.26 441.96 952.65 441.99 974.04 C 441.88 976.42 442.95 978.59 443.91 980.71 C 439.30 978.85 437.73 973.75 436.18 969.49 C 434.63 965.28 434.17 960.42 431.08 956.97 C 426.25 955.63 421.36 957.32 416.97 959.26 C 410.66 962.00 403.54 962.33 397.42 965.55 C 389.62 969.71 386.77 979.60 378.29 982.78 C 372.90 985.17 367.51 981.09 361.99 981.56 C 356.16 981.08 350.77 984.75 344.94 983.58 C 338.43 982.25 334.17 976.50 328.19 974.07 C 324.22 973.20 319.65 973.05 316.15 975.43 C 310.75 978.71 305.67 983.50 299.03 983.75 C 293.89 984.16 289.05 980.56 283.96 982.22 C 277.75 984.00 270.64 984.91 264.88 981.33 C 258.17 977.34 251.29 972.15 243.06 972.64 C 233.62 973.35 226.88 981.18 217.94 983.42 C 215.52 984.15 213.51 982.27 211.65 981.06 C 213.51 980.27 215.65 979.49 216.48 977.47 C 219.14 971.98 221.17 966.22 223.72 960.70 C 235.80 960.91 247.91 960.30 259.97 960.95 C 263.59 966.72 264.61 973.86 268.69 979.35 C 272.36 983.04 279.09 978.33 276.45 973.61 C 267.88 952.64 258.78 931.88 250.06 910.97 C 248.99 908.00 247.08 905.41 244.49 903.60 C 244.12 903.29 243.37 902.65 243.00 902.33 C 246.79 902.00 250.77 902.59 253.79 905.08 C 258.95 908.85 262.51 914.42 264.93 920.25 C 269.08 930.84 274.08 941.06 278.56 951.52 C 280.38 955.51 282.13 959.69 285.11 962.99 C 287.90 963.76 291.48 963.91 293.57 961.53 C 298.17 956.95 302.08 950.74 301.42 943.99 C 300.93 936.25 295.32 930.31 292.30 923.50 C 290.35 919.73 289.70 915.35 291.08 911.28 C 299.37 921.58 307.70 931.85 315.98 942.16 C 309.10 950.83 302.15 959.46 295.11 968.00 C 293.46 970.05 291.58 972.00 290.49 974.42 C 289.23 977.34 291.87 980.84 295.01 980.63 C 297.24 980.55 298.63 978.55 299.99 977.05 C 307.10 967.93 314.20 958.81 321.47 949.81 C 329.26 959.30 336.83 968.99 344.59 978.50 C 346.55 981.46 351.51 981.28 353.00 977.98 C 354.39 975.48 352.74 972.87 351.13 970.98 C 343.28 961.41 335.47 951.80 327.81 942.07 C 335.59 932.13 343.62 922.38 351.52 912.53 C 353.03 910.86 353.42 908.64 353.31 906.47 C 356.98 907.07 361.01 908.19 364.52 906.39 C 368.39 904.46 372.08 902.09 376.27 900.87 M 605.54 903.70 C 598.98 904.70 592.40 907.67 588.29 913.04 C 584.36 918.10 583.27 925.03 584.93 931.17 C 586.42 936.36 590.89 940.07 595.57 942.38 C 604.11 946.30 613.52 947.62 622.32 950.81 C 625.60 952.11 629.31 954.19 630.06 957.97 C 630.99 963.04 627.75 968.24 622.91 969.87 C 614.92 972.67 606.10 971.91 597.99 970.03 C 594.24 969.27 590.83 966.90 586.96 966.97 C 582.73 967.63 582.33 974.20 586.20 975.74 C 594.53 979.65 603.84 981.23 613.00 981.21 C 621.15 981.13 629.86 978.77 635.46 972.51 C 642.55 964.88 641.81 950.99 633.03 944.94 C 623.61 938.31 611.45 938.36 601.11 933.88 C 597.58 932.31 594.14 929.19 594.32 925.02 C 593.87 920.01 597.91 915.96 602.33 914.40 C 612.00 910.79 622.59 912.86 632.17 915.68 C 636.80 916.73 638.97 909.07 634.74 907.24 C 625.61 903.42 615.32 902.58 605.54 903.70 M 368.50 910.00 C 368.51 932.03 368.37 954.07 368.56 976.09 C 368.42 980.01 373.70 982.00 376.55 979.59 C 378.98 977.84 378.29 974.52 378.45 971.97 C 378.23 965.29 378.95 958.57 378.09 951.92 C 382.97 953.23 388.07 952.34 393.05 952.56 C 401.15 952.74 409.86 952.62 416.89 948.02 C 429.85 940.35 430.66 919.28 418.83 910.25 C 412.97 905.63 405.30 904.22 398.01 904.34 C 389.65 904.43 381.28 904.20 372.92 904.45 C 370.04 904.37 368.21 907.35 368.50 910.00 M 746.22 904.24 C 735.84 906.43 726.64 913.59 722.12 923.21 C 715.54 937.10 716.49 954.74 725.76 967.21 C 738.40 984.05 765.70 985.86 781.36 972.33 C 798.79 956.84 798.32 925.58 780.01 910.97 C 770.64 903.46 757.72 901.81 746.22 904.24 Z" />
<path fill="#000000" opacity="0.19" d=" M 522.50 904.39 C 526.39 900.10 532.51 898.98 538.01 898.38 C 546.70 898.13 555.64 897.91 564.03 900.60 C 566.23 901.19 567.96 902.73 569.37 904.48 C 553.75 904.22 538.12 904.37 522.50 904.39 Z" />
<path fill="#000000" opacity="0.19" d=" M 129.90 904.68 C 134.93 904.14 140.01 904.10 145.04 904.74 C 144.01 906.67 142.60 909.02 143.81 911.22 C 144.65 913.23 146.97 913.65 148.91 913.64 C 155.90 913.74 162.88 913.62 169.86 913.70 C 169.93 934.31 170.10 954.92 169.91 975.53 C 166.17 971.29 165.20 965.47 165.13 960.01 C 164.97 950.65 166.08 940.92 162.91 931.92 C 160.40 926.64 155.25 921.51 149.05 921.68 C 145.77 921.53 144.16 925.03 143.26 927.65 C 140.32 938.40 142.78 949.67 141.36 960.61 C 140.92 968.14 139.01 976.90 131.49 980.45 C 131.45 979.77 131.35 978.42 131.31 977.74 C 131.58 955.84 131.36 933.93 131.44 912.02 C 131.51 909.47 131.15 906.92 129.90 904.68 Z" />
<path fill="#000000" opacity="0.19" d=" M 231.47 907.48 C 232.86 905.74 235.13 905.40 237.16 904.89 C 235.56 907.18 234.33 909.69 233.25 912.27 C 226.69 927.95 219.99 943.57 213.39 959.23 C 210.94 965.24 208.01 971.09 206.36 977.40 C 203.23 968.96 206.64 960.09 209.98 952.29 C 213.07 943.59 217.64 935.51 220.48 926.71 C 222.78 919.64 226.41 912.96 231.47 907.48 Z" />
<path fill="#000000" opacity="0.19" d=" M 301.52 908.34 C 307.00 907.49 310.95 911.95 315.32 914.41 C 319.25 917.16 324.40 918.12 329.02 916.75 C 332.53 915.27 335.46 912.75 338.73 910.85 C 338.75 911.43 338.79 912.60 338.82 913.18 C 333.41 920.40 327.68 927.38 322.09 934.46 C 315.24 925.74 308.19 917.18 301.52 908.34 Z" />
<path fill="#000000" opacity="0.19" d=" M 36.85 916.59 C 37.25 914.59 38.67 913.06 39.86 911.50 C 40.23 933.51 39.73 955.54 40.11 977.55 C 38.82 976.37 37.33 975.19 36.97 973.39 C 34.84 964.78 35.12 955.83 35.17 947.03 C 35.29 936.87 34.46 926.56 36.85 916.59 Z" />
<path fill="#000000" opacity="0.19" d=" M 748.36 913.49 C 758.06 911.20 769.31 913.24 776.26 920.79 C 785.83 931.18 786.50 948.19 779.14 959.98 C 769.68 975.03 744.94 975.87 734.18 961.86 C 727.86 953.79 726.81 942.68 729.09 932.95 C 731.36 923.62 738.86 915.58 748.36 913.49 M 757.52 925.03 C 753.04 925.46 748.53 927.10 745.28 930.28 C 738.53 937.49 737.79 949.42 743.77 957.34 C 748.73 964.30 759.07 966.39 766.48 962.23 C 772.56 959.28 775.79 952.47 776.29 945.99 C 776.91 940.22 774.46 934.49 770.69 930.23 C 767.16 926.97 762.31 925.08 757.52 925.03 Z" />
<path fill="#000000" opacity="0.19" d=" M 50.05 913.68 C 60.97 914.04 73.00 911.95 82.67 918.33 C 97.81 927.56 99.29 951.70 86.27 963.35 C 81.07 968.12 73.99 970.48 67.00 970.64 C 61.37 970.78 55.74 970.57 50.11 970.66 C 49.61 951.66 50.07 932.67 50.05 913.68 M 69.25 932.24 C 66.25 934.06 64.74 937.59 64.47 940.98 C 64.07 945.74 64.13 950.96 66.90 955.07 C 68.56 957.48 71.87 959.48 74.74 957.86 C 83.76 954.94 86.92 941.60 79.92 935.13 C 77.21 932.52 72.92 930.00 69.25 932.24 Z" />
<path fill="#000000" opacity="0.19" d=" M 180.16 913.69 C 188.09 913.60 196.04 913.90 203.96 913.45 C 204.16 917.92 200.59 920.86 197.74 923.75 C 193.93 927.44 190.85 932.17 190.14 937.54 C 189.11 947.35 190.78 957.32 189.17 967.09 C 188.01 972.43 185.12 979.23 178.79 979.57 C 179.79 977.18 180.11 974.60 180.08 972.04 C 180.03 952.59 180.10 933.14 180.16 913.69 Z" />
<path fill="#000000" opacity="0.19" d=" M 378.45 942.86 C 378.50 933.17 378.43 923.47 378.48 913.78 C 385.29 913.87 392.11 913.68 398.93 913.84 C 404.21 914.06 410.20 914.97 413.76 919.33 C 416.98 922.89 417.56 928.11 416.44 932.64 C 415.11 937.41 410.93 941.06 406.13 942.09 C 397.03 944.13 387.67 942.46 378.45 942.86 Z" />
<path fill="#000000" opacity="0.19" d=" M 452.11 913.80 C 459.05 913.85 466.00 913.70 472.94 913.83 C 477.67 914.07 482.74 914.47 486.79 917.20 C 493.01 921.42 493.22 931.72 487.46 936.44 C 483.72 939.54 478.79 940.72 474.04 941.01 C 466.73 941.42 459.43 940.63 452.13 940.89 C 452.14 931.86 452.13 922.83 452.11 913.80 Z" />
<path fill="#000000" opacity="0.19" d=" M 227.56 951.51 C 232.26 939.97 237.16 928.51 241.86 916.97 C 246.79 928.48 251.41 940.12 256.42 951.60 C 246.80 951.27 237.17 951.40 227.56 951.51 Z" />
</g>
</svg>
